<svg width="365" height="149" viewBox="0 0 365 149" fill="none" xmlns="http://www.w3.org/2000/svg">
<path d="M46 31.79C46 20.12 38.15 13.28 25.76 13.28H15V50.28H25.75C38.33 50.28 45.99 42.62 45.99 31.78L46 31.79ZM59.11 31.78C59.11 52.37 45.11 62.67 24.02 62.67H2.27002V0.890015H24.05C45.05 0.890015 59.14 11.55 59.14 31.79" fill="#1A1A1A"/>
<path d="M68.24 35.34V0.890015H81V34C81 47.31 86 51.59 95.85 51.59C105.7 51.59 110.71 47.31 110.71 34V0.890015H123.47V35.34C123.47 53.93 113.81 63.96 95.85 63.96C77.89 63.96 68.24 54.02 68.24 35.34" fill="#1A1A1A"/>
<path d="M147.88 13.28V25.5H178.87V37.34H147.88V50.29H182.97V62.68H135.12V0.890015H182.97V13.28H147.88Z" fill="#1A1A1A"/>
<path d="M230.26 22.76C230.26 16.84 226.43 13.29 216.87 13.29H204.74V32.29H216.87C226.43 32.29 230.26 28.37 230.26 22.81V22.76ZM243.39 22.81C243.39 35.75 235.39 44.69 215.86 44.69H204.74V62.69H192V0.890015H215.88C235.39 0.890015 243.41 9.82001 243.41 22.76" fill="#1A1A1A"/>
<path d="M263.98 13.28V25.5H294.96V37.34H263.98V50.29H299.06V62.68H251.21V0.890015H299.06V13.28H263.98Z" fill="#1A1A1A"/>
<path d="M320.84 30.42H333.41C342.98 30.42 346.35 26.86 346.35 21.85C346.35 16.29 342.98 13.29 333.41 13.29H320.84V30.42ZM328.67 42.81H320.84V62.68H308.07V0.890015H333.32C352.46 0.890015 359.47 10.46 359.47 21.89C359.47 31.46 355.1 39.03 343.53 41.76L360.29 62.76H344.35L328.67 42.81Z" fill="#1A1A1A"/>
<path d="M0.0800171 126.81H12.84C12.84 132.09 16.58 135.81 27.24 135.81C36.99 135.81 40.18 132.62 40.18 128.61C40.18 114.85 0.900017 128.61 0.900017 102.36C0.900017 92.07 10.65 83.68 25.42 83.68C39.27 83.68 51.03 91.15 51.94 103.55H39.18C38.18 98.9 33.9 95.8 25.42 95.8C17.58 95.8 14.02 98.63 14.02 102.18C14.02 115.3 53.31 101.81 53.31 128.88C53.31 141.82 42.55 148.02 27.24 148.02C11.93 148.02 0.0800171 140.37 0.0800171 126.79" fill="#1A1A1A"/>
<path d="M112.17 97.37H91.03V146.77H78.27V97.37H57.12V84.97H112.17V97.37Z" fill="#1A1A1A"/>
<path d="M120.91 119.42V85H133.67V118.09C133.67 131.39 138.67 135.68 148.52 135.68C158.37 135.68 163.38 131.39 163.38 118.09V85H176.14V119.45C176.14 138.05 166.48 148.07 148.52 148.07C130.56 148.07 120.91 138.14 120.91 119.45" fill="#1A1A1A"/>
<path d="M232.27 115.87C232.27 104.21 224.43 97.37 212.04 97.37H201.28V134.37H212C224.57 134.37 232.23 126.72 232.23 115.87H232.27ZM245.35 115.87C245.35 136.47 231.35 146.77 210.26 146.77H188.52V85H210.3C231.36 85 245.39 95.67 245.39 115.9" fill="#1A1A1A"/>
<path d="M267.98 84.97H255.22V146.76H267.98V84.97Z" fill="#1A1A1A"/>
<path d="M331.78 116.05C331.78 105.3 324.12 96.28 311.36 96.28C298.78 96.28 290.95 105.28 290.95 116.05C290.95 126.82 298.42 135.46 311.36 135.46C324.03 135.46 331.78 126.81 331.78 116.05ZM277.78 116.05C277.78 96.46 293 83.7 311.32 83.7C329.64 83.7 345 95.46 344.9 116.05C344.8 135.19 329.77 148.05 311.36 148.05C293.13 148.05 277.82 135.11 277.82 116.05" fill="#1A1A1A"/>
<path d="M348 139.29C348 137.054 348.888 134.91 350.469 133.329C352.05 131.748 354.194 130.86 356.43 130.86C358.666 130.86 360.81 131.748 362.391 133.329C363.972 134.91 364.86 137.054 364.86 139.29C364.901 140.383 364.718 141.474 364.321 142.494C363.925 143.513 363.323 144.441 362.553 145.219C361.784 145.997 360.863 146.609 359.848 147.016C358.832 147.424 357.744 147.62 356.65 147.59C355.535 147.622 354.424 147.432 353.383 147.03C352.342 146.629 351.392 146.024 350.587 145.252C349.782 144.479 349.138 143.554 348.694 142.531C348.25 141.507 348.014 140.406 348 139.29Z" fill="#1A1A1A"/>
</svg>
